<svg aria-hidden="true" style="position: absolute; width: 0; height: 0; overflow: hidden;" version="1.1" xmlns="http://www.w3.org/2000/svg">
    <defs>
        <symbol id="check" viewBox="0 0 20 20">
            <path fill="none" d="M16.6667 5L7.50001 14.1667L3.33334 10" stroke="white" stroke-width="2" stroke-linecap="round"
            stroke-linejoin="round" />
        </symbol>
        <symbol id="icon-youtube" viewBox="0 0 32 32">
      <path d="M24.24 6c-1.36-.08-4.16-.16-8.4-.16h-.56c-4.08 0-6.8.08-8.16.24-1.84.16-3.12.64-3.84 1.28-.64.56-1.12 1.6-1.28 2.96-.08.88-.16 2.72-.16 5.52v.4c0 2.64.08 4.48.24 5.36.24 1.28.64 2.24 1.44 2.8.8.64 2.16 1.04 4.08 1.2 1.36.08 4.16.16 8.4.16h.56c4.08 0 6.8-.08 8.16-.24 1.84-.16 3.12-.64 3.84-1.28.64-.56 1.12-1.6 1.28-2.96.08-.88.16-2.72.16-5.52v-.4c0-2.64-.08-4.48-.24-5.36-.24-1.28-.64-2.24-1.44-2.8-.8-.64-2.16-1.04-4.08-1.2zm-3.12 9.84-8.8 5.28V10.56l8.8 5.28z"/>
    </symbol>
    <symbol id="icon-facebook" viewBox="0 0 32 32">
      <path d="M19.52 4.64h.96v3.6h-1.2c-.48 0-.96 0-1.2.24s-.24.48-.24 1.04v1.28h2.64v3.04h-2.64v13.2h-4.08V13.76H11.6v-3.04h2.16V9.68c0-1.76.24-3.04.72-3.6.72-1.04 2.16-1.52 4.32-1.52.24.08.48.08.72.08z"/>
    </symbol>
    <symbol id="icon-instagram" viewBox="0 0 32 32">
      <path d="M28.718 10.757a9.235 9.235 0 0 0-.617-3.209l.021.063a6.586 6.586 0 0 0-3.698-3.721l-.044-.015a9.217 9.217 0 0 0-3.098-.596h-.01c-1.367-.062-1.801-.079-5.273-.079-3.471 0-3.916 0-5.274.079a9.402 9.402 0 0 0-3.171.617l.064-.022a6.58 6.58 0 0 0-3.727 3.692l-.015.044a9.114 9.114 0 0 0-.596 3.092v.009c-.062 1.366-.08 1.799-.08 5.265s0 3.908.08 5.265a9.345 9.345 0 0 0 .596 3.104 6.588 6.588 0 0 0 3.7 3.72l.044.015c.917.369 1.98.6 3.091.637h.015c1.369.062 1.803.08 5.274.08s3.916 0 5.274-.079a9.384 9.384 0 0 0 3.172-.617l-.064.022a6.594 6.594 0 0 0 3.728-3.692l.016-.044a9.15 9.15 0 0 0 .594-3.095v-.009c.062-1.365.08-1.797.08-5.265-.002-3.466-.002-3.905-.082-5.264zM15.99 22.532h-.007a6.565 6.565 0 0 1-6.565-6.561 6.566 6.566 0 0 1 6.566-6.561h.012a6.567 6.567 0 0 1 6.567 6.56 6.567 6.567 0 0 1-6.567 6.562h-.005zm6.833-11.835a1.53 1.53 0 1 1 0-3.06 1.53 1.53 0 1 1 0 3.06z"/>
      <path d="M15.991 19.975a4.004 4.004 0 0 0 0-8.008 4.004 4.004 0 1 0 0 8.008z"/>
    </symbol>
    </defs>
</svg>